<?xml version="1.0" encoding="UTF-8"?><svg xmlns="http://www.w3.org/2000/svg" xmlns:xlink="http://www.w3.org/1999/xlink" width="32px" height="42px" viewBox="0 0 32 42" version="1.1"><g id="surface1"><path style=" stroke:none;fill-rule:nonzero;fill:rgb(0%,0%,0%);fill-opacity:1;" d="M 14.355469 41.152344 C 2.246094 23.875 0 22.101562 0 15.75 C 0 7.050781 7.164062 0 16 0 C 24.835938 0 32 7.050781 32 15.75 C 32 22.101562 29.753906 23.875 17.644531 41.152344 C 16.851562 42.28125 15.148438 42.28125 14.355469 41.152344 Z M 16 22.3125 C 19.683594 22.3125 22.667969 19.375 22.667969 15.75 C 22.667969 12.125 19.683594 9.1875 16 9.1875 C 12.316406 9.1875 9.332031 12.125 9.332031 15.75 C 9.332031 19.375 12.316406 22.3125 16 22.3125 Z M 16 22.3125 "/></g></svg>
